<svg xmlns="http://www.w3.org/2000/svg" version="1.1" xmlns:xlink="http://www.w3.org/1999/xlink" xmlns:svgjs="http://svgjs.dev/svgjs" width="1000" height="1000" viewBox="0 0 1000 1000"><rect width="1000" height="1000" fill="#0074d9"></rect><g transform="matrix(0.7,0,0,0.7,150,106.25)"><svg viewBox="0 0 320 360" data-background-color="#0074d9" preserveAspectRatio="xMidYMid meet" height="1125" width="1000" xmlns="http://www.w3.org/2000/svg" xmlns:xlink="http://www.w3.org/1999/xlink"><g id="tight-bounds" transform="matrix(1,0,0,1,0,0)"><svg viewBox="0 0 320 360" height="360" width="320"><g><svg></svg></g><g><svg viewBox="0 0 320 360" height="360" width="320"><g><path xmlns="http://www.w3.org/2000/svg" d="M219.58 41.008c0.707 0 6.365 2.829 9.547 3.89-1.061 0.354-3.536-0.707-6.365-1.768 0.707 0 2.122 0.354 3.536 1.06-0.707-0.707-6.011-2.475-6.718-3.182M166.895 30.047c1.061-0.354 13.436 1.414 19.094 1.768 0.354-0.354-0.707-0.354-2.122-0.707 1.768-0.354 5.304 0.707 7.779 1.06-7.425 0.354-15.558-1.768-22.629-1.06-2.475 0-0.707-0.707-2.122-1.061M156.641 30.047c6.365 0 11.315 0 2.121 0.707-1.061-0.354-2.475-0.354-2.121-0.707M256.707 59.395c0.707 0 3.536 3.182 4.95 4.243-0.354 0.354-3.182-2.475-4.596-3.536 0.354 0.354 0 0-0.354-0.707M249.635 54.798c-2.829-2.475-3.889-2.475-4.243-3.889 2.475 1.414 4.243 2.829 4.243 3.889M204.022 32.522c0.354-0.354 1.061 0.354 2.829 0.707-2.122-0.354-1.768 0-1.061 0.707-2.475-0.354-3.182-0.707-2.475-1.414 1.414 0.707 1.768 0.354 0.707 0M103.602 36.765c0-0.354 1.414-1.061 2.475-1.414-1.061 0.707-0.707 1.061 1.061 0.353 0 0.354-2.122 1.061-3.536 1.768 0.707-0.354 1.414-1.414 0-0.707M211.094 28.986c-1.061 0.354-4.95-1.768-8.84-2.475-2.122-0.707 8.486 1.768 8.84 2.475M2.475 203.66c2.122 8.84 0.707 8.486 0 0M2.829 150.621c0.354-1.414 0.707-5.304 1.06-4.95-1.061 8.486-2.829 12.376-3.182 18.74 1.061-5.657-0.354 3.182-0.707 5.304 0.354 2.829 0.354-1.768 1.061-1.06 0.707 1.061-1.414 15.912-0.707 7.779-0.707 7.425 0 15.558 1.414 17.679-1.768 11.315 7.072 36.773 8.84 42.077 0.354 0.354 0-1.768 0.707-0.353 0.707 4.597 3.889 7.779 4.95 12.729 1.061 1.414 5.304 9.193 6.011 10.962 1.414 2.829 2.122 2.475 3.536 5.303 4.243 8.133 10.961 15.912 17.326 23.337 20.508 24.044 51.978 43.845 86.984 50.918 35.006 7.425 71.779 2.122 100.419-11.669 1.768-1.061 1.414-1.414 3.536-2.122 9.901-3.182 21.923-13.436 28.641-17.326 3.182-3.536 11.669-9.547 12.73-13.082 6.011-4.95 12.022-13.083 15.204-18.387 1.768-2.829 3.182-2.829 3.889-4.597-0.354 0 5.657-7.425 7.426-11.668-0.707 0-1.768 2.122-1.768 0 12.729-24.398 19.801-57.282 15.911-79.912 0.707 27.934-6.365 59.05-19.801 78.851-6.011 12.729-18.387 26.519-29.701 36.42-1.768 1.768-3.536 3.889-5.658 5.304-6.718 5.657-14.144 10.254-21.922 14.497-18.387 10.254-38.895 19.094-62.94 19.447 41.37-3.536 78.497-24.398 99.006-49.856-15.558 15.204-22.276 21.215-39.602 30.055-1.414 2.475-13.083 7.425-20.862 9.547 4.597-2.122 14.144-5.657 17.326-8.486-25.812 12.376-54.453 19.448-81.326 15.558 10.254 0 24.751 0.354 38.541-2.121 2.122-0.707 3.182-1.414 5.658-1.768 26.873-6.011 52.685-19.094 71.072-37.481-10.608 9.547-26.519 20.862-36.774 24.398 9.547-5.304 26.873-15.558 32.53-23.337-11.315 11.315-32.53 22.63-45.966 27.58-2.122 0.354 1.414-1.414-2.122 0-4.243 1.061-2.475 1.061-3.536 1.768-16.265 4.597-35.006 8.486-50.563 7.072-2.829-0.354-3.889-1.061-6.365-1.061-2.829-0.354-5.304-0.354-8.486-0.354-12.376-1.414-25.812-6.365-35.713-10.607-5.304-2.475-10.608-4.243-15.912-7.426-4.243-2.475-7.779-5.304-11.314-8.132-13.436-9.901-24.751-19.801-35.36-33.945-19.094-26.519-28.994-59.757-27.58-92.641 1.414-32.884 14.497-65.061 35.359-88.752-1.061 1.061 1.414-2.475 3.536-4.596 0 0.707-0.354 1.768 2.122-0.707 2.122-2.475-0.707-0.707 0.353-2.122 21.923-24.044 60.111-43.492 99.36-44.199 1.414-1.061 3.889-2.475 6.718-1.768 0 0.354-1.768 0.354-1.768 0.354 3.889-0.354 7.425-0.354 9.193 0.353 0.354-0.354-1.414-0.707 0-0.707 2.475 0.707 3.182 0 4.597 0.707-1.061 0-2.122 0-2.829 0.354 8.84 0 14.497 2.122 23.337 2.829-4.597-1.061-5.657-1.061-9.193-2.122 3.889 0.707 5.657 1.414 7.425 1.061-0.707 0-0.354-1.061 0.354-0.707 7.072 1.768 7.779 2.475 15.204 4.95 0.707-0.707-3.182-1.061-4.243-2.122 7.072 2.475 13.436 4.243 17.68 7.072-1.414-1.061-5.657-2.475-8.84-3.889-0.354 0.354 1.061 0.707 1.414 1.414-3.536-1.768-8.486-3.536-13.436-4.243 4.243 1.061 7.072 2.475 8.84 3.182-3.889-0.707-8.84-3.182-14.498-4.243 9.193 2.829 26.519 9.193 37.127 14.851-3.889-2.475-8.486-4.243-10.961-5.657 2.122 0.354 4.597 1.768 4.597 1.06 2.475 1.061 5.657 3.536 7.425 3.89-3.182-2.122-9.547-5.304-11.668-6.365 26.519 12.022 50.21 32.177 65.414 57.989 1.414 2.475 3.536 8.133 5.304 8.84-0.354-1.768-1.768-2.829-3.182-5.657 0.707 0 0.707-1.061 0-2.122-1.414-1.768 0 1.414-1.415-0.354-6.365-11.669-14.144-21.923-26.165-33.237 6.718 6.365 1.768 1.768 0.353-0.354 9.193 8.133 19.801 21.923 24.398 28.995-0.707-1.061-1.061-1.768-0.707-1.768 8.486 14.497 13.79 27.58 19.094 46.32 0.354 0.354 0-1.414 0.707-0.353 3.536 14.851 4.597 27.227 4.243 38.541 2.829-19.094-3.536-48.796-14.851-72.133-1.414-2.829-1.414-0.707-2.829-3.889 0-1.061-1.061-3.182-1.768-4.597-14.144-23.337-31.47-39.956-51.978-53.038 1.414 0.707 4.243 2.829 4.244 2.475-38.188-25.105-82.387-28.641-118.807-20.862-2.475 1.061-3.536 2.122-6.365 3.536 5.304-1.768 8.486-2.122 13.437-3.183 1.061-1.061-4.597 0.354-2.122-0.707 0.354 0.354 4.95-0.707 6.011-0.353 0 0.354-1.414 0.707-1.768 1.06 11.669-2.475 23.691-2.829 33.945-2.121-6.011 0.354-16.972-0.707-20.508 1.061 3.536-0.354 8.486-0.707 11.668-0.354-4.243 0-12.022 0.354-15.558 0.707-0.354-0.354 5.657-1.061 1.768-1.06-1.768 0.354-4.597 0.354-5.657 1.414-30.409 2.829-60.111 18.74-80.973 37.481-4.243 3.536-9.193 7.425-12.375 11.314-7.779 8.84-12.729 17.68-18.387 25.459 3.536-7.425 11.315-18.74 20.508-28.287 9.193-9.547 19.094-17.68 24.398-21.923 0 1.414 8.486-5.304 11.669-7.425-2.122 1.768 1.414-0.707 2.121-0.354 11.315-6.718 20.508-9.193 30.763-13.083-2.475 0.707-4.597 1.414-4.951 1.061 2.475-0.707 3.889-1.414 3.536-1.768-9.901 2.829-25.459 9.547-37.834 16.972 22.276-15.204 50.564-24.398 78.497-24.751 27.934-0.707 55.16 6.365 76.729 17.68 14.497 6.365 28.287 18.033 39.249 29.348 3.182 2.829 0.707-0.707 5.304 4.243-1.414-0.707-2.475-1.414-0.707 0.707 2.829 3.182-0.707-2.475 3.889 3.182-0.354 0-1.768-1.768-1.768-1.061 12.376 10.961 21.923 30.762 27.58 43.846-1.414-5.304-4.95-12.729-7.779-18.033 8.486 15.558 11.315 24.751 14.851 38.541 1.414 1.061-0.707-4.95 0.707-2.121 0.354 2.122 0.707 8.84 2.122 9.9-1.061-6.718-2.829-14.851-4.243-16.265 1.061 0.707-1.768-8.133-3.536-10.254-0.707-5.657-5.657-15.558-9.901-22.984-15.204-29.702-42.431-54.099-72.839-67.536 0-0.707-1.768-1.414-2.476-2.121-30.055-12.729-66.122-16.265-100.773-8.133-35.006 8.486-67.889 28.641-91.227 57.636 1.061-3.536 9.901-10.254 10.255-13.083-10.254 10.961-21.215 25.459-28.641 41.016-7.779 15.558-12.022 31.47-13.79 43.138" fill="#ffffff" fill-rule="nonzero" stroke="none" stroke-width="1" stroke-linecap="butt" stroke-linejoin="miter" stroke-miterlimit="10" stroke-dasharray="" stroke-dashoffset="0" font-family="none" font-weight="none" font-size="none" text-anchor="none" style="mix-blend-mode: normal" data-fill-palette-color="tertiary"></path></g><g transform="matrix(1,0,0,1,48,150.81765566761484)"><svg viewBox="0 0 224 58.36468866477032" height="58.36468866477032" width="224"><g><svg viewBox="0 0 350.9086468938647 91.4315800256082" height="58.36468866477032" width="224"><g><rect width="3.791806403622023" height="91.4315800256082" x="113.19064571636306" y="0" fill="#ffffff" opacity="1" stroke-width="0" stroke="transparent" fill-opacity="1" class="rect-o-0" data-fill-palette-color="primary" rx="1%" id="o-0" data-palette-color="#ffffff"></rect></g><g transform="matrix(1,0,0,1,126.90864689386473,0.22744174135723227)"><svg viewBox="0 0 224 90.97669654289373" height="90.97669654289373" width="224"><g id="textblocktransform"><svg viewBox="0 0 224 90.97669654289373" height="90.97669654289373" width="224" id="textblock"><g><svg viewBox="0 0 224 90.97669654289373" height="90.97669654289373" width="224"><g transform="matrix(1,0,0,1,0,0)"><svg width="224" viewBox="4.349999904632568 -36.230003356933594 195.75 76.31000518798828" height="90.97669654289373" data-palette-color="#ffffff"><svg></svg><svg></svg><g class="wordmark-text-0" data-fill-palette-color="primary" id="text-0"><path xmlns="http://www.w3.org/2000/svg" d="M4.35-35.83h22.08v3.95h-17.21v12.53h14.71v3.95h-14.71v15.4h-4.87zM41.65-14.95h-3.67v14.95h-4.83v-35.83h10.13c2.26 0 4.217 0.23 5.87 0.69 1.653 0.46 3.017 1.123 4.09 1.99 1.073 0.867 1.87 1.913 2.39 3.14 0.513 1.22 0.77 2.59 0.77 4.11v0c0 1.267-0.2 2.45-0.6 3.55-0.4 1.1-0.98 2.087-1.74 2.96-0.76 0.88-1.683 1.627-2.77 2.24-1.093 0.613-2.33 1.08-3.71 1.4v0c0.6 0.347 1.13 0.853 1.59 1.52v0l10.46 14.23h-4.3c-0.887 0-1.537-0.343-1.95-1.03v0l-9.3-12.8c-0.287-0.4-0.597-0.687-0.93-0.86-0.333-0.173-0.833-0.26-1.5-0.26zM37.98-32v13.52h5.07c1.413 0 2.66-0.17 3.74-0.51 1.073-0.34 1.973-0.823 2.7-1.45 0.727-0.627 1.273-1.373 1.64-2.24 0.36-0.867 0.54-1.823 0.54-2.87v0c0-2.133-0.703-3.743-2.11-4.83-1.407-1.08-3.5-1.62-6.28-1.62v0zM80-35.83l14.33 35.83h-3.75c-0.44 0-0.79-0.11-1.05-0.33-0.267-0.213-0.47-0.487-0.61-0.82v0l-3.34-8.65h-16.08l-3.35 8.65c-0.12 0.3-0.32 0.567-0.6 0.8-0.28 0.233-0.63 0.35-1.05 0.35v0h-3.75l14.33-35.83zM76.47-27.85l-5.62 14.55h13.37l-5.62-14.58c-0.367-0.9-0.723-2.023-1.07-3.37v0c-0.187 0.68-0.367 1.31-0.54 1.89-0.18 0.573-0.353 1.077-0.52 1.51zM118.38-32.52l-1.18 2.29c-0.153 0.253-0.313 0.443-0.48 0.57-0.167 0.12-0.38 0.18-0.64 0.18v0c-0.287 0-0.617-0.14-0.99-0.42-0.373-0.287-0.85-0.6-1.43-0.94-0.573-0.34-1.263-0.653-2.07-0.94-0.807-0.28-1.787-0.42-2.94-0.42v0c-1.08 0-2.037 0.147-2.87 0.44-0.833 0.287-1.53 0.68-2.09 1.18-0.56 0.5-0.983 1.09-1.27 1.77-0.28 0.673-0.42 1.4-0.42 2.18v0c0 1 0.247 1.83 0.74 2.49 0.487 0.66 1.137 1.223 1.95 1.69 0.807 0.467 1.723 0.87 2.75 1.21 1.02 0.34 2.07 0.693 3.15 1.06 1.073 0.367 2.123 0.78 3.15 1.24 1.027 0.46 1.943 1.04 2.75 1.74 0.807 0.7 1.457 1.557 1.95 2.57 0.487 1.02 0.73 2.27 0.73 3.75v0c0 1.567-0.263 3.04-0.79 4.42-0.533 1.373-1.313 2.567-2.34 3.58-1.027 1.02-2.287 1.82-3.78 2.4-1.487 0.587-3.183 0.88-5.09 0.88v0c-2.313 0-4.423-0.42-6.33-1.26-1.913-0.847-3.543-1.987-4.89-3.42v0l1.4-2.3c0.133-0.18 0.297-0.333 0.49-0.46 0.193-0.127 0.403-0.19 0.63-0.19v0c0.353 0 0.753 0.19 1.2 0.57 0.453 0.373 1.017 0.783 1.69 1.23 0.68 0.453 1.497 0.867 2.45 1.24 0.96 0.373 2.133 0.56 3.52 0.56v0c1.147 0 2.17-0.157 3.07-0.47 0.9-0.32 1.663-0.767 2.29-1.34 0.627-0.573 1.107-1.26 1.44-2.06 0.333-0.8 0.5-1.693 0.5-2.68v0c0-1.08-0.247-1.967-0.74-2.66-0.493-0.693-1.14-1.273-1.94-1.74-0.8-0.467-1.713-0.86-2.74-1.18-1.027-0.327-2.077-0.66-3.15-1-1.073-0.347-2.123-0.743-3.15-1.19-1.02-0.453-1.933-1.037-2.74-1.75-0.8-0.72-1.443-1.617-1.93-2.69-0.493-1.073-0.74-2.403-0.74-3.99v0c0-1.267 0.247-2.49 0.74-3.67 0.487-1.187 1.2-2.237 2.14-3.15 0.933-0.92 2.087-1.653 3.46-2.2 1.373-0.553 2.953-0.83 4.74-0.83v0c2 0 3.823 0.32 5.47 0.96 1.653 0.627 3.097 1.543 4.33 2.75zM125.35-35.83h22.08v3.95h-17.21v11.9h13.93v3.8h-13.93v12.23h17.21v3.95h-22.08zM163.4-14.95h-3.67v14.95h-4.83v-35.83h10.13c2.267 0 4.223 0.23 5.87 0.69 1.653 0.46 3.017 1.123 4.09 1.99 1.073 0.867 1.87 1.913 2.39 3.14 0.513 1.22 0.77 2.59 0.77 4.11v0c0 1.267-0.2 2.45-0.6 3.55-0.4 1.1-0.98 2.087-1.74 2.96-0.753 0.88-1.677 1.627-2.77 2.24-1.093 0.613-2.33 1.08-3.71 1.4v0c0.6 0.347 1.133 0.853 1.6 1.52v0l10.45 14.23h-4.3c-0.887 0-1.537-0.343-1.95-1.03v0l-9.3-12.8c-0.287-0.4-0.597-0.687-0.93-0.86-0.333-0.173-0.833-0.26-1.5-0.26zM159.73-32v13.52h5.07c1.42 0 2.667-0.17 3.74-0.51 1.073-0.34 1.973-0.823 2.7-1.45 0.727-0.627 1.273-1.373 1.64-2.24 0.367-0.867 0.55-1.823 0.55-2.87v0c0-2.133-0.707-3.743-2.12-4.83-1.407-1.08-3.5-1.62-6.28-1.62v0z" fill="#ffffff" fill-rule="nonzero" stroke="none" stroke-width="1" stroke-linecap="butt" stroke-linejoin="miter" stroke-miterlimit="10" stroke-dasharray="" stroke-dashoffset="0" font-family="none" font-weight="none" font-size="none" text-anchor="none" style="mix-blend-mode: normal" data-fill-palette-color="primary" opacity="1"></path><path xmlns="http://www.w3.org/2000/svg" d="M13.35 24.7h-3.67v14.95h-4.83v-35.83h10.13c2.267 0 4.223 0.23 5.87 0.69 1.653 0.46 3.017 1.123 4.09 1.99 1.073 0.867 1.87 1.913 2.39 3.14 0.513 1.22 0.77 2.59 0.77 4.11v0c0 1.267-0.2 2.45-0.6 3.55-0.4 1.1-0.98 2.087-1.74 2.96-0.753 0.88-1.677 1.627-2.77 2.24-1.093 0.613-2.33 1.08-3.71 1.4v0c0.6 0.347 1.133 0.853 1.6 1.52v0l10.45 14.23h-4.3c-0.887 0-1.537-0.343-1.95-1.03v0l-9.3-12.8c-0.287-0.4-0.597-0.687-0.93-0.86-0.333-0.173-0.833-0.26-1.5-0.26zM9.68 7.65v13.52h5.07c1.42 0 2.667-0.17 3.74-0.51 1.073-0.34 1.973-0.823 2.7-1.45 0.727-0.627 1.273-1.373 1.64-2.24 0.367-0.867 0.55-1.823 0.55-2.87v0c0-2.133-0.707-3.743-2.12-4.83-1.407-1.08-3.5-1.62-6.28-1.62v0zM49.43 35.8v0c1.48 0 2.803-0.25 3.97-0.75 1.167-0.5 2.153-1.2 2.96-2.1 0.813-0.9 1.43-1.977 1.85-3.23 0.427-1.247 0.64-2.62 0.64-4.12v0-21.78h4.82v21.78c0 2.067-0.327 3.983-0.98 5.75-0.66 1.767-1.603 3.297-2.83 4.59-1.22 1.287-2.713 2.297-4.48 3.03-1.767 0.74-3.75 1.11-5.95 1.11v0c-2.2 0-4.183-0.37-5.95-1.11-1.767-0.733-3.267-1.743-4.5-3.03-1.233-1.293-2.18-2.823-2.84-4.59-0.66-1.767-0.99-3.683-0.99-5.75v0-21.78h4.83v21.75c0 1.5 0.21 2.877 0.63 4.13 0.427 1.247 1.043 2.32 1.85 3.22 0.813 0.9 1.807 1.607 2.98 2.12 1.173 0.507 2.503 0.76 3.99 0.76zM91.53 7.13l-1.18 2.29c-0.147 0.253-0.303 0.443-0.47 0.57-0.167 0.12-0.383 0.18-0.65 0.18v0c-0.287 0-0.617-0.14-0.99-0.42-0.373-0.287-0.85-0.6-1.43-0.94-0.573-0.34-1.263-0.653-2.07-0.94-0.807-0.28-1.787-0.42-2.94-0.42v0c-1.08 0-2.037 0.147-2.87 0.44-0.833 0.287-1.53 0.68-2.09 1.18-0.56 0.5-0.98 1.09-1.26 1.77-0.287 0.673-0.43 1.4-0.43 2.18v0c0 1 0.247 1.83 0.74 2.49 0.493 0.66 1.143 1.223 1.95 1.69 0.807 0.467 1.723 0.87 2.75 1.21 1.027 0.34 2.077 0.693 3.15 1.06 1.073 0.367 2.123 0.78 3.15 1.24 1.027 0.46 1.943 1.04 2.75 1.74 0.807 0.7 1.457 1.557 1.95 2.57 0.493 1.02 0.74 2.27 0.74 3.75v0c0 1.567-0.267 3.04-0.8 4.42-0.533 1.373-1.313 2.567-2.34 3.58-1.027 1.02-2.287 1.82-3.78 2.4-1.487 0.587-3.18 0.88-5.08 0.88v0c-2.32 0-4.433-0.42-6.34-1.26-1.907-0.847-3.537-1.987-4.89-3.42v0l1.4-2.3c0.133-0.18 0.297-0.333 0.49-0.46 0.193-0.127 0.407-0.19 0.64-0.19v0c0.347 0 0.747 0.19 1.2 0.57 0.447 0.373 1.007 0.783 1.68 1.23 0.68 0.453 1.497 0.867 2.45 1.24 0.96 0.373 2.133 0.56 3.52 0.56v0c1.147 0 2.17-0.157 3.07-0.47 0.9-0.32 1.663-0.767 2.29-1.34 0.627-0.573 1.107-1.26 1.44-2.06 0.333-0.8 0.5-1.693 0.5-2.68v0c0-1.08-0.247-1.967-0.74-2.66-0.493-0.693-1.14-1.273-1.94-1.74-0.8-0.467-1.713-0.86-2.74-1.18-1.02-0.327-2.07-0.66-3.15-1-1.073-0.347-2.123-0.743-3.15-1.19-1.02-0.453-1.93-1.037-2.73-1.75-0.8-0.72-1.447-1.617-1.94-2.69-0.493-1.073-0.74-2.403-0.74-3.99v0c0-1.267 0.247-2.49 0.74-3.67 0.493-1.187 1.207-2.237 2.14-3.15 0.933-0.92 2.087-1.653 3.46-2.2 1.373-0.553 2.953-0.83 4.74-0.83v0c2 0 3.823 0.32 5.47 0.96 1.653 0.627 3.097 1.543 4.33 2.75zM118.03 7.13l-1.18 2.29c-0.147 0.253-0.303 0.443-0.47 0.57-0.167 0.12-0.383 0.18-0.65 0.18v0c-0.287 0-0.617-0.14-0.99-0.42-0.373-0.287-0.85-0.6-1.43-0.94-0.573-0.34-1.263-0.653-2.07-0.94-0.807-0.28-1.787-0.42-2.94-0.42v0c-1.08 0-2.037 0.147-2.87 0.44-0.833 0.287-1.53 0.68-2.09 1.18-0.56 0.5-0.98 1.09-1.26 1.77-0.287 0.673-0.43 1.4-0.43 2.18v0c0 1 0.247 1.83 0.74 2.49 0.493 0.66 1.143 1.223 1.95 1.69 0.807 0.467 1.723 0.87 2.75 1.21 1.027 0.34 2.077 0.693 3.15 1.06 1.073 0.367 2.123 0.78 3.15 1.24 1.027 0.46 1.943 1.04 2.75 1.74 0.807 0.7 1.457 1.557 1.95 2.57 0.493 1.02 0.74 2.27 0.74 3.75v0c0 1.567-0.267 3.04-0.8 4.42-0.533 1.373-1.313 2.567-2.34 3.58-1.027 1.02-2.287 1.82-3.78 2.4-1.487 0.587-3.18 0.88-5.08 0.88v0c-2.32 0-4.433-0.42-6.34-1.26-1.907-0.847-3.537-1.987-4.89-3.42v0l1.4-2.3c0.133-0.18 0.297-0.333 0.49-0.46 0.193-0.127 0.407-0.19 0.64-0.19v0c0.347 0 0.747 0.19 1.2 0.57 0.447 0.373 1.007 0.783 1.68 1.23 0.68 0.453 1.497 0.867 2.45 1.24 0.96 0.373 2.133 0.56 3.52 0.56v0c1.147 0 2.17-0.157 3.07-0.47 0.9-0.32 1.663-0.767 2.29-1.34 0.627-0.573 1.107-1.26 1.44-2.06 0.333-0.8 0.5-1.693 0.5-2.68v0c0-1.08-0.247-1.967-0.74-2.66-0.493-0.693-1.14-1.273-1.94-1.74-0.8-0.467-1.713-0.86-2.74-1.18-1.02-0.327-2.07-0.66-3.15-1-1.073-0.347-2.123-0.743-3.15-1.19-1.02-0.453-1.93-1.037-2.73-1.75-0.8-0.72-1.447-1.617-1.94-2.69-0.493-1.073-0.74-2.403-0.74-3.99v0c0-1.267 0.247-2.49 0.74-3.67 0.493-1.187 1.207-2.237 2.14-3.15 0.933-0.92 2.087-1.653 3.46-2.2 1.373-0.553 2.953-0.83 4.74-0.83v0c2 0 3.823 0.32 5.47 0.96 1.653 0.627 3.097 1.543 4.33 2.75zM125 3.82h22.08v3.95h-17.2v11.9h13.92v3.8h-13.92v12.23h17.2v3.95h-22.08zM158.9 3.82v31.75h15.5v4.08h-20.35v-35.83zM184.6 3.82v31.75h15.5v4.08h-20.35v-35.83z" fill="#ffffff" fill-rule="nonzero" stroke="none" stroke-width="1" stroke-linecap="butt" stroke-linejoin="miter" stroke-miterlimit="10" stroke-dasharray="" stroke-dashoffset="0" font-family="none" font-weight="none" font-size="none" text-anchor="none" style="mix-blend-mode: normal" data-fill-palette-color="primary" opacity="1"></path></g></svg></g></svg></g></svg></g></svg></g><g transform="matrix(1,0,0,1,0,0.22744174135723227)"><svg viewBox="0 0 103.26445094248342 90.97669654289373" height="90.97669654289373" width="103.26445094248342"><g><svg xmlns="http://www.w3.org/2000/svg" xmlns:xlink="http://www.w3.org/1999/xlink" version="1.1" x="0" y="0" viewBox="6.300000190734863 11.5 87.39999389648438 77" style="enable-background:new 0 0 100 100;" xml:space="preserve" height="90.97669654289373" width="103.26445094248342" class="icon-icon-0" data-fill-palette-color="accent" id="icon-0"><path d="M72.3 12.3L72.3 12.3 72.3 12.3l-0.4-0.8H28.2L6.3 50l21.8 38.5h43.7L93.7 50 72.3 12.3zM33.3 25.3L9.9 47.7l18.6-32.8L33.3 25.3zM70.7 14.8l6.4 35.7L36.9 25.8 70.7 14.8zM35.5 27.3l41 25.2-41 23.3V27.3zM77 54.5l-7.2 30.8-32.6-8.1L77 54.5zM33.5 75L9.9 50.5l23.6-22.7V75zM33.2 77.6l-4.6 7.7L11.5 55.1 33.2 77.6zM35 78.6l31.4 7.9H30.2L35 78.6zM79.3 53.3l11.6-2.5L72.1 84 79.3 53.3zM90.7 48.9l-11.4 2.5-5.9-33.1L90.7 48.9zM35 24.3l-5-10.8h38.2L35 24.3z" fill="#24a8df" data-fill-palette-color="accent"></path></svg></g></svg></g></svg></g></svg></g></svg></g><defs></defs></svg><rect width="320" height="360" fill="none" stroke="none" visibility="hidden"></rect></g></svg></g></svg>